<svg width="96" height="96" viewBox="0 0 96 96" fill="none" xmlns="http://www.w3.org/2000/svg">
<path d="M16 52C20.4 52 24 48.4 24 44C24 39.6 20.4 36 16 36C11.6 36 8 39.6 8 44C8 48.4 11.6 52 16 52ZM20.52 56.4C19.04 56.16 17.56 56 16 56C12.04 56 8.28 56.84 4.88 58.32C1.92 59.6 0 62.48 0 65.72V72H18V65.56C18 62.24 18.92 59.12 20.52 56.4ZM80 52C84.4 52 88 48.4 88 44C88 39.6 84.4 36 80 36C75.6 36 72 39.6 72 44C72 48.4 75.6 52 80 52ZM96 65.72C96 62.48 94.08 59.6 91.12 58.32C87.72 56.84 83.96 56 80 56C78.44 56 76.96 56.16 75.48 56.4C77.08 59.12 78 62.24 78 65.56V72H96V65.72ZM64.96 54.6C60.28 52.52 54.52 51 48 51C41.48 51 35.72 52.56 31.04 54.6C26.72 56.52 24 60.84 24 65.56V72H72V65.56C72 60.84 69.28 56.52 64.96 54.6ZM32.28 64C32.64 63.08 32.8 62.44 35.92 61.24C39.8 59.72 43.88 59 48 59C52.12 59 56.2 59.72 60.08 61.24C63.16 62.44 63.32 63.08 63.72 64H32.28ZM48 32C50.2 32 52 33.8 52 36C52 38.2 50.2 40 48 40C45.8 40 44 38.2 44 36C44 33.8 45.8 32 48 32ZM48 24C41.36 24 36 29.36 36 36C36 42.64 41.36 48 48 48C54.64 48 60 42.64 60 36C60 29.36 54.64 24 48 24Z" fill="#1E40AF"/>
</svg>
