<svg width="35" height="35" viewBox="0 0 35 35" fill="none" xmlns="http://www.w3.org/2000/svg">
<path d="M1 17.5H0H1ZM7.1875 17.5H6.1875H7.1875ZM17.5 27.8125L17.5 28.8125L17.5 27.8125ZM27.8125 17.5L28.8125 17.5L27.8125 17.5ZM17.5 0C12.8587 0 8.40752 1.84374 5.12563 5.12563L6.53984 6.53984C9.44666 3.63303 13.3891 2 17.5 2V0ZM5.12563 5.12563C1.84374 8.40752 0 12.8587 0 17.5H2C2 13.3891 3.63303 9.44666 6.53984 6.53984L5.12563 5.12563ZM0 17.5C0 22.1413 1.84375 26.5925 5.12563 29.8744L6.53984 28.4602C3.63303 25.5533 2 21.6109 2 17.5H0ZM5.12563 29.8744C8.40752 33.1563 12.8587 35 17.5 35V33C13.3891 33 9.44666 31.367 6.53984 28.4602L5.12563 29.8744ZM17.5 35C22.1413 35 26.5925 33.1563 29.8744 29.8744L28.4602 28.4602C25.5533 31.367 21.6109 33 17.5 33V35ZM29.8744 29.8744C33.1563 26.5925 35 22.1413 35 17.5H33C33 21.6109 31.367 25.5533 28.4602 28.4602L29.8744 29.8744ZM35 17.5C35 12.8587 33.1563 8.40752 29.8744 5.12563L28.4602 6.53984C31.367 9.44666 33 13.3891 33 17.5H35ZM29.8744 5.12563C26.5925 1.84374 22.1413 0 17.5 0V2C21.6109 2 25.5533 3.63303 28.4602 6.53984L29.8744 5.12563ZM17.5 6.1875C14.4997 6.1875 11.6224 7.37935 9.50085 9.50085L10.9151 10.9151C12.6615 9.16863 15.0302 8.1875 17.5 8.1875V6.1875ZM9.50085 9.50085C7.37935 11.6224 6.1875 14.4997 6.1875 17.5H8.1875C8.1875 15.0302 9.16863 12.6615 10.9151 10.9151L9.50085 9.50085ZM6.1875 17.5C6.1875 20.5003 7.37935 23.3776 9.50085 25.4991L10.9151 24.0849C9.16863 22.3385 8.1875 19.9698 8.1875 17.5H6.1875ZM9.50085 25.4991C11.6224 27.6206 14.4997 28.8125 17.5 28.8125L17.5 26.8125C15.0302 26.8125 12.6615 25.8314 10.9151 24.0849L9.50085 25.4991ZM17.5 28.8125C20.5003 28.8125 23.3776 27.6206 25.4991 25.4991L24.0849 24.0849C22.3385 25.8314 19.9698 26.8125 17.5 26.8125L17.5 28.8125ZM25.4991 25.4991C27.6206 23.3776 28.8125 20.5003 28.8125 17.5L26.8125 17.5C26.8125 19.9698 25.8314 22.3385 24.0849 24.0849L25.4991 25.4991ZM28.8125 17.5C28.8125 14.4997 27.6206 11.6224 25.4991 9.50085L24.0849 10.9151C25.8314 12.6615 26.8125 15.0302 26.8125 17.5L28.8125 17.5ZM25.4991 9.50085C23.3776 7.37935 20.5003 6.1875 17.5 6.1875V8.1875C19.9698 8.1875 22.3385 9.16863 24.0849 10.9151L25.4991 9.50085ZM10.6878 8.46913C7.07467 11.3596 5.01709 14.8604 4.64473 18.9563C4.2757 23.0157 5.57465 27.5212 8.38176 32.4336L10.1182 31.4414C7.42535 26.7288 6.31805 22.6405 6.63652 19.1374C6.95166 15.6709 8.67533 12.6404 11.9372 10.0309L10.6878 8.46913ZM24.3122 26.5309C27.9211 23.6437 29.9822 20.1815 30.3552 16.1186C30.7247 12.0935 29.4237 7.62401 26.6182 2.71439L24.8818 3.70667C27.5763 8.42205 28.6815 12.4723 28.3636 15.9357C28.0491 19.3612 26.3289 22.3563 23.0628 24.9691L24.3122 26.5309Z" fill="#DF5413"/>
</svg>
