<svg width="72" height="72" viewBox="0 0 72 72" fill="none" xmlns="http://www.w3.org/2000/svg">
<path d="M36 6C19.44 6 6 19.44 6 36C6 52.56 19.44 66 36 66C52.56 66 66 52.56 66 36C66 19.44 52.56 6 36 6ZM36 60C22.77 60 12 49.23 12 36C12 22.77 22.77 12 36 12C49.23 12 60 22.77 60 36C60 49.23 49.23 60 36 60ZM36.93 33.42C31.62 32.07 29.91 30.6 29.91 28.41C29.91 25.89 32.28 24.12 36.21 24.12C40.35 24.12 41.91 26.1 42.03 29.04H47.16C47.01 25.02 44.55 21.33 39.69 20.13V15H32.7V20.07C28.17 21.03 24.54 23.97 24.54 28.5C24.54 33.87 29.01 36.57 35.52 38.13C41.37 39.51 42.54 41.58 42.54 43.74C42.54 45.33 41.37 47.91 36.24 47.91C31.44 47.91 29.55 45.75 29.28 42.99H24.12C24.42 48.09 28.2 50.97 32.7 51.9V57H39.72V51.99C44.28 51.12 47.88 48.51 47.91 43.68C47.88 37.08 42.21 34.8 36.93 33.42V33.42Z" fill="#1E40AF"/>
</svg>
