<svg width="96" height="96" viewBox="0 0 96 96" fill="none" xmlns="http://www.w3.org/2000/svg">
<path d="M48 8C25.92 8 8 25.92 8 48C8 70.08 25.92 88 48 88C70.08 88 88 70.08 88 48C88 25.92 70.08 8 48 8ZM48 80C30.36 80 16 65.64 16 48C16 30.36 30.36 16 48 16C65.64 16 80 30.36 80 48C80 65.64 65.64 80 48 80ZM49.24 44.56C42.16 42.76 39.88 40.8 39.88 37.88C39.88 34.52 43.04 32.16 48.28 32.16C53.8 32.16 55.88 34.8 56.04 38.72H62.88C62.68 33.36 59.4 28.44 52.92 26.84V20H43.6V26.76C37.56 28.04 32.72 31.96 32.72 38C32.72 45.16 38.68 48.76 47.36 50.84C55.16 52.68 56.72 55.44 56.72 58.32C56.72 60.44 55.16 63.88 48.32 63.88C41.92 63.88 39.4 61 39.04 57.32H32.16C32.56 64.12 37.6 67.96 43.6 69.2V76H52.96V69.32C59.04 68.16 63.84 64.68 63.88 58.24C63.84 49.44 56.28 46.4 49.24 44.56V44.56Z" fill="#1E40AF"/>
</svg>
