<svg width="72" height="72" viewBox="0 0 72 72" fill="none" xmlns="http://www.w3.org/2000/svg">
<path d="M12 39C15.3 39 18 36.3 18 33C18 29.7 15.3 27 12 27C8.7 27 6 29.7 6 33C6 36.3 8.7 39 12 39ZM15.39 42.3C14.28 42.12 13.17 42 12 42C9.03 42 6.21 42.63 3.66 43.74C1.44 44.7 0 46.86 0 49.29V54H13.5V49.17C13.5 46.68 14.19 44.34 15.39 42.3ZM60 39C63.3 39 66 36.3 66 33C66 29.7 63.3 27 60 27C56.7 27 54 29.7 54 33C54 36.3 56.7 39 60 39ZM72 49.29C72 46.86 70.56 44.7 68.34 43.74C65.79 42.63 62.97 42 60 42C58.83 42 57.72 42.12 56.61 42.3C57.81 44.34 58.5 46.68 58.5 49.17V54H72V49.29ZM48.72 40.95C45.21 39.39 40.89 38.25 36 38.25C31.11 38.25 26.79 39.42 23.28 40.95C20.04 42.39 18 45.63 18 49.17V54H54V49.17C54 45.63 51.96 42.39 48.72 40.95ZM24.21 48C24.48 47.31 24.6 46.83 26.94 45.93C29.85 44.79 32.91 44.25 36 44.25C39.09 44.25 42.15 44.79 45.06 45.93C47.37 46.83 47.49 47.31 47.79 48H24.21ZM36 24C37.65 24 39 25.35 39 27C39 28.65 37.65 30 36 30C34.35 30 33 28.65 33 27C33 25.35 34.35 24 36 24ZM36 18C31.02 18 27 22.02 27 27C27 31.98 31.02 36 36 36C40.98 36 45 31.98 45 27C45 22.02 40.98 18 36 18Z" fill="#1E40AF"/>
</svg>
