<svg width="50" height="50" viewBox="0 0 50 50" fill="none" xmlns="http://www.w3.org/2000/svg">
<path d="M1 25H0H1ZM10 25H9H10ZM25 40L25 41L25 40ZM40 25L41 25L40 25ZM25 0C18.3696 0 12.0107 2.63392 7.32233 7.32233L8.73654 8.73654C13.0499 4.42321 18.9 2 25 2V0ZM7.32233 7.32233C2.63392 12.0107 0 18.3696 0 25H2C2 18.9 4.42321 13.0499 8.73654 8.73654L7.32233 7.32233ZM0 25C0 31.6304 2.63392 37.9893 7.32233 42.6777L8.73654 41.2635C4.42321 36.9501 2 31.1 2 25H0ZM7.32233 42.6777C12.0107 47.3661 18.3696 50 25 50V48C18.9 48 13.0499 45.5768 8.73654 41.2635L7.32233 42.6777ZM25 50C31.6304 50 37.9893 47.3661 42.6777 42.6777L41.2635 41.2635C36.9501 45.5768 31.1 48 25 48V50ZM42.6777 42.6777C47.3661 37.9893 50 31.6304 50 25H48C48 31.1 45.5768 36.9501 41.2635 41.2635L42.6777 42.6777ZM50 25C50 18.3696 47.3661 12.0107 42.6777 7.32233L41.2635 8.73654C45.5768 13.0499 48 18.9 48 25H50ZM42.6777 7.32233C37.9893 2.63392 31.6304 0 25 0V2C31.1 2 36.9501 4.42321 41.2635 8.73654L42.6777 7.32233ZM25 9C20.7565 9 16.6869 10.6857 13.6863 13.6863L15.1005 15.1005C17.726 12.475 21.287 11 25 11V9ZM13.6863 13.6863C10.6857 16.6869 9 20.7565 9 25H11C11 21.287 12.475 17.726 15.1005 15.1005L13.6863 13.6863ZM9 25C9 29.2435 10.6857 33.3131 13.6863 36.3137L15.1005 34.8995C12.475 32.274 11 28.713 11 25H9ZM13.6863 36.3137C16.6869 39.3143 20.7565 41 25 41L25 39C21.287 39 17.726 37.525 15.1005 34.8995L13.6863 36.3137ZM25 41C29.2435 41 33.3131 39.3143 36.3137 36.3137L34.8995 34.8995C32.274 37.525 28.713 39 25 39L25 41ZM36.3137 36.3137C39.3143 33.3131 41 29.2435 41 25L39 25C39 28.713 37.525 32.274 34.8995 34.8995L36.3137 36.3137ZM41 25C41 20.7565 39.3143 16.6869 36.3137 13.6863L34.8995 15.1005C37.525 17.726 39 21.287 39 25L41 25ZM36.3137 13.6863C33.3131 10.6857 29.2435 9 25 9V11C28.713 11 32.274 12.475 34.8995 15.1005L36.3137 13.6863ZM15.3753 12.2191C10.1997 16.3596 7.28272 21.3447 6.75411 27.1595C6.22882 32.9376 8.07465 39.3962 12.1318 46.4961L13.8682 45.5039C9.92535 38.6038 8.27118 32.5624 8.74589 27.3405C9.21728 22.1553 11.8003 17.6404 16.6247 13.7809L15.3753 12.2191ZM34.6247 37.7809C39.7961 33.6437 42.7166 28.714 43.2458 22.9491C43.7716 17.2221 41.9237 10.8163 37.8682 3.71918L36.1318 4.71146C40.0763 11.6143 41.7284 17.6009 41.2542 22.7662C40.7835 27.8937 38.2039 32.3563 33.3753 36.2191L34.6247 37.7809Z" fill="#DF5413"/>
</svg>
