<svg width="64" height="64" viewBox="0 0 64 64" fill="none" xmlns="http://www.w3.org/2000/svg">
<path d="M3 32H0.5H3ZM13.875 32H11.375H13.875ZM32 50.125V52.625V50.125ZM50.125 32H52.625H50.125ZM32 0.5C23.6457 0.5 15.6335 3.81874 9.72614 9.72614L13.2617 13.2617C18.2314 8.29196 24.9718 5.5 32 5.5V0.5ZM9.72614 9.72614C3.81874 15.6335 0.5 23.6457 0.5 32H5.5C5.5 24.9718 8.29196 18.2314 13.2617 13.2617L9.72614 9.72614ZM0.5 32C0.5 40.3543 3.81874 48.3665 9.72614 54.2739L13.2617 50.7383C8.29196 45.7686 5.5 39.0282 5.5 32H0.5ZM9.72614 54.2739C15.6335 60.1813 23.6457 63.5 32 63.5V58.5C24.9718 58.5 18.2314 55.708 13.2617 50.7383L9.72614 54.2739ZM32 63.5C40.3543 63.5 48.3665 60.1813 54.2739 54.2739L50.7383 50.7383C45.7686 55.708 39.0282 58.5 32 58.5V63.5ZM54.2739 54.2739C60.1813 48.3665 63.5 40.3543 63.5 32H58.5C58.5 39.0282 55.708 45.7686 50.7383 50.7383L54.2739 54.2739ZM63.5 32C63.5 23.6457 60.1813 15.6335 54.2739 9.72614L50.7383 13.2617C55.708 18.2314 58.5 24.9718 58.5 32H63.5ZM54.2739 9.72614C48.3665 3.81874 40.3543 0.5 32 0.5V5.5C39.0282 5.5 45.7686 8.29196 50.7383 13.2617L54.2739 9.72614ZM32 11.375C26.5299 11.375 21.2839 13.548 17.4159 17.4159L20.9515 20.9515C23.8817 18.0212 27.856 16.375 32 16.375V11.375ZM17.4159 17.4159C13.548 21.2839 11.375 26.5299 11.375 32H16.375C16.375 27.856 18.0212 23.8817 20.9515 20.9515L17.4159 17.4159ZM11.375 32C11.375 37.4701 13.548 42.7161 17.4159 46.5841L20.9515 43.0485C18.0212 40.1183 16.375 36.144 16.375 32H11.375ZM17.4159 46.5841C21.2839 50.452 26.5299 52.625 32 52.625V47.625C27.856 47.625 23.8817 45.9788 20.9515 43.0485L17.4159 46.5841ZM32 52.625C37.4701 52.625 42.7161 50.452 46.5841 46.5841L43.0485 43.0485C40.1183 45.9788 36.144 47.625 32 47.625V52.625ZM46.5841 46.5841C50.452 42.7161 52.625 37.4701 52.625 32H47.625C47.625 36.144 45.9788 40.1183 43.0485 43.0485L46.5841 46.5841ZM52.625 32C52.625 26.5299 50.452 21.2839 46.5841 17.4159L43.0485 20.9515C45.9788 23.8817 47.625 27.856 47.625 32H52.625ZM46.5841 17.4159C42.7161 13.548 37.4701 11.375 32 11.375V16.375C36.144 16.375 40.1183 18.0212 43.0485 20.9515L46.5841 17.4159ZM19.5633 15.5478C13.0825 20.7324 9.34221 27.0598 8.66652 34.4924C7.99914 41.8336 10.3533 49.9072 15.3294 58.6153L19.6706 56.1347C14.98 47.9261 13.105 40.8956 13.646 34.9451C14.1786 29.0861 17.0841 23.9342 22.6867 19.4522L19.5633 15.5478ZM44.4367 48.4522C50.9069 43.276 54.656 37.0175 55.3333 29.6399C56.0019 22.357 53.6427 14.346 48.6706 5.64483L44.3294 8.12553C49.024 16.3411 50.8939 23.3041 50.3542 29.1828C49.8232 34.9668 46.9264 40.0573 41.3133 44.5478L44.4367 48.4522Z" fill="#DF5413"/>
</svg>
