<svg width="49" height="48" viewBox="0 0 49 48" fill="none" xmlns="http://www.w3.org/2000/svg">
<path d="M24.5 4C13.46 4 4.5 12.96 4.5 24C4.5 35.04 13.46 44 24.5 44C35.54 44 44.5 35.04 44.5 24C44.5 12.96 35.54 4 24.5 4ZM24.5 40C15.68 40 8.5 32.82 8.5 24C8.5 15.18 15.68 8 24.5 8C33.32 8 40.5 15.18 40.5 24C40.5 32.82 33.32 40 24.5 40ZM25.12 22.28C21.58 21.38 20.44 20.4 20.44 18.94C20.44 17.26 22.02 16.08 24.64 16.08C27.4 16.08 28.44 17.4 28.52 19.36H31.94C31.84 16.68 30.2 14.22 26.96 13.42V10H22.3V13.38C19.28 14.02 16.86 15.98 16.86 19C16.86 22.58 19.84 24.38 24.18 25.42C28.08 26.34 28.86 27.72 28.86 29.16C28.86 30.22 28.08 31.94 24.66 31.94C21.46 31.94 20.2 30.5 20.02 28.66H16.58C16.78 32.06 19.3 33.98 22.3 34.6V38H26.98V34.66C30.02 34.08 32.42 32.34 32.44 29.12C32.42 24.72 28.64 23.2 25.12 22.28V22.28Z" fill="#1E40AF"/>
</svg>
